<svg width="17" height="15" viewBox="0 0 17 15" fill="none" xmlns="http://www.w3.org/2000/svg">
<path d="M15.305 14.192H6.54498C6.22845 14.1907 5.92526 14.0644 5.70144 13.8406C5.47762 13.6167 5.35129 13.3135 5.34998 12.997C5.39166 12.3194 5.64964 11.6731 6.08598 11.153C6.5399 10.6127 7.12293 10.1958 7.78098 9.94102C8.78519 9.56418 9.85275 9.38489 10.925 9.41302C11.9971 9.38505 13.0646 9.56398 14.069 9.94002C14.727 10.1948 15.31 10.6117 15.764 11.152C16.2007 11.6718 16.4588 12.3183 16.5 12.996C16.4989 13.3127 16.3727 13.6162 16.1489 13.8402C15.925 14.0642 15.6217 14.1907 15.305 14.192ZM6.14998 13C6.14998 13.1061 6.19212 13.2078 6.26713 13.2829C6.34215 13.3579 6.44389 13.4 6.54998 13.4H15.311C15.4171 13.4 15.5188 13.3579 15.5938 13.2829C15.6688 13.2078 15.711 13.1061 15.711 13C15.6654 12.489 15.4592 12.0056 15.122 11.619C14.346 10.698 12.898 10.211 10.932 10.211C8.96598 10.211 7.51798 10.698 6.74198 11.619C6.40376 12.0053 6.19653 12.4887 6.14998 13Z" fill="#03AEEE" stroke="#03AEEE" stroke-width="0.5"/>
<path d="M10.9079 7.55999C10.2778 7.55999 9.66181 7.37313 9.13788 7.02305C8.61394 6.67297 8.20559 6.17538 7.96444 5.59322C7.7233 5.01105 7.66021 4.37046 7.78314 3.75243C7.90608 3.13441 8.20951 2.56672 8.65508 2.12115C9.10065 1.67558 9.66834 1.37214 10.2864 1.24921C10.9044 1.12628 11.545 1.18937 12.1272 1.43051C12.7093 1.67165 13.2069 2.08001 13.557 2.60394C13.9071 3.12788 14.0939 3.74386 14.0939 4.37399C14.0931 5.21873 13.7572 6.02864 13.1599 6.62596C12.5626 7.22327 11.7527 7.5592 10.9079 7.55999ZM10.9079 1.98499C10.4354 1.98499 9.97354 2.1251 9.58067 2.38761C9.1878 2.65012 8.8816 3.02323 8.70078 3.45976C8.51996 3.89629 8.47265 4.37664 8.56483 4.84006C8.65701 5.30348 8.88454 5.72916 9.21865 6.06327C9.55276 6.39738 9.97843 6.62491 10.4419 6.71709C10.9053 6.80927 11.3856 6.76196 11.8222 6.58114C12.2587 6.40032 12.6318 6.09412 12.8943 5.70125C13.1568 5.30838 13.2969 4.84649 13.2969 4.37399C13.2953 3.74115 13.043 3.13473 12.5953 2.68753C12.1475 2.24032 11.5408 1.98878 10.9079 1.98799V1.98499Z" fill="#03AEEE" stroke="#03AEEE" stroke-width="0.5"/>
<path d="M4.084 14.192H1.695C1.37864 14.1907 1.07561 14.0645 0.851812 13.8409C0.628019 13.6173 0.501579 13.3144 0.5 12.998C0.528386 12.4779 0.712333 11.9783 1.028 11.564C1.34654 11.1486 1.76718 10.8227 2.249 10.618C2.95723 10.3283 3.71807 10.1893 4.483 10.21C4.626 10.21 4.767 10.21 4.903 10.221C4.95553 10.2238 5.007 10.2369 5.05447 10.2595C5.10195 10.2822 5.1445 10.3139 5.17969 10.353C5.21489 10.3921 5.24203 10.4378 5.25959 10.4873C5.27714 10.5369 5.28476 10.5895 5.282 10.642C5.27924 10.6945 5.26617 10.746 5.24352 10.7935C5.22087 10.841 5.18909 10.8835 5.14999 10.9187C5.1109 10.9539 5.06526 10.9811 5.01567 10.9986C4.96609 11.0162 4.91353 11.0238 4.861 11.021C4.739 11.015 4.613 11.011 4.484 11.011C1.382 11.01 1.3 12.902 1.3 13.001C1.3 13.1071 1.34214 13.2088 1.41716 13.2839C1.4543 13.321 1.4984 13.3505 1.54693 13.3706C1.59546 13.3907 1.64747 13.401 1.7 13.401H4.086C4.19209 13.401 4.29383 13.4432 4.36884 13.5182C4.44386 13.5932 4.486 13.6949 4.486 13.801C4.486 13.9071 4.44386 14.0088 4.36884 14.0839C4.29383 14.1589 4.19209 14.201 4.086 14.201L4.084 14.192Z" fill="#03AEEE" stroke="#03AEEE" stroke-width="0.5"/>
<path d="M3.48199 8.37297C3.00958 8.37277 2.54783 8.23252 2.15511 7.96994C1.7624 7.70735 1.45635 7.33423 1.27566 6.89774C1.09496 6.46125 1.04774 5.98098 1.13995 5.51766C1.23216 5.05433 1.45967 4.62874 1.79372 4.29469C2.12776 3.96065 2.55335 3.73314 3.01668 3.64092C3.48001 3.54871 3.96027 3.59594 4.39676 3.77663C4.83326 3.95733 5.20638 4.26338 5.46896 4.65609C5.73154 5.04881 5.8718 5.51056 5.87199 5.98297C5.87147 6.61668 5.61949 7.22427 5.1714 7.67237C4.7233 8.12047 4.1157 8.37244 3.48199 8.37297ZM3.48199 4.39097C3.16689 4.39097 2.85886 4.48442 2.59687 4.65951C2.33488 4.8346 2.1307 5.08345 2.01016 5.37459C1.88962 5.66573 1.85813 5.98608 1.91968 6.29512C1.98122 6.60416 2.13304 6.888 2.35593 7.11075C2.57881 7.33349 2.86275 7.48513 3.17183 7.54648C3.48091 7.60784 3.80124 7.57615 4.0923 7.45542C4.38337 7.3347 4.63209 7.13037 4.80701 6.86827C4.98193 6.60617 5.07519 6.29808 5.07499 5.98297C5.07367 5.56126 4.90529 5.15725 4.60671 4.85943C4.30814 4.5616 3.90371 4.39423 3.48199 4.39397V4.39097Z" fill="#03AEEE" stroke="#03AEEE" stroke-width="0.5"/>
</svg>
